<svg width="252" height="77" viewBox="0 0 252 77" fill="none" xmlns="http://www.w3.org/2000/svg">
<path d="M66.5141 74.0475C66.5141 74.2133 66.4272 74.3002 66.2614 74.3002H65.4401C65.2743 74.3002 65.1874 74.2133 65.1874 74.0475V67.1616C65.1874 66.9957 65.2743 66.9089 65.4401 66.9089H66.2614C66.4272 66.9089 66.5141 66.9957 66.5141 67.1616V74.0475Z" fill="#696B7E"/>
<path d="M70.9836 70.7861C70.9836 70.0281 70.6914 69.6727 70.0833 69.6727C69.4753 69.6727 69.1673 70.0281 69.1673 70.7861V74.0396C69.1673 74.2054 69.0805 74.2923 68.9146 74.2923H68.2118C68.046 74.2923 67.9591 74.2054 67.9591 74.0396V70.7072C67.9591 69.3489 68.7093 68.6224 70.0912 68.6224C71.4732 68.6224 72.2076 69.3489 72.2076 70.7072V74.0396C72.2076 74.2054 72.1207 74.2923 71.9549 74.2923H71.2521C71.0862 74.2923 70.9994 74.2054 70.9994 74.0396V70.7861H70.9836Z" fill="#696B7E"/>
<path d="M74.9478 68.3697V68.7567H76.2981C76.4639 68.7567 76.5508 68.8435 76.5508 69.0094V69.5464C76.5508 69.7122 76.4639 69.799 76.2981 69.799H74.9478V74.0317C74.9478 74.1975 74.8609 74.2844 74.6951 74.2844H73.9923C73.8264 74.2844 73.7396 74.1975 73.7396 74.0317V69.799H73.2737C73.1078 69.799 73.021 69.7122 73.021 69.5464V69.0094C73.021 68.8435 73.1078 68.7567 73.2737 68.7567H73.7396V68.3855C73.7396 67.0826 74.4187 66.3561 75.6585 66.3561C76.0691 66.3561 76.4639 66.4271 76.7719 66.5535C76.9298 66.6167 76.9614 66.743 76.8904 66.8852L76.6692 67.3984C76.6061 67.5643 76.5034 67.5959 76.3455 67.5248C76.1797 67.4458 75.9743 67.3984 75.769 67.3984C75.2557 67.3984 74.9557 67.7459 74.9557 68.3539L74.9478 68.3697Z" fill="#696B7E"/>
<path d="M81.3678 70.7466V72.3181C81.3678 73.6921 80.6018 74.4344 79.2041 74.4344C77.8064 74.4344 77.0325 73.6842 77.0325 72.3181V70.7466C77.0325 69.3726 77.7985 68.6303 79.2041 68.6303C80.6097 68.6303 81.3678 69.3805 81.3678 70.7466ZM80.1517 70.8335C80.1517 70.0517 79.8437 69.6727 79.2041 69.6727C78.5645 69.6727 78.2486 70.0517 78.2486 70.8335V72.2154C78.2486 73.0051 78.5566 73.3841 79.2041 73.3841C79.8516 73.3841 80.1517 73.0051 80.1517 72.2154V70.8335Z" fill="#696B7E"/>
<path d="M86.4296 66.4982C86.5954 66.4982 86.6823 66.585 86.6823 66.7509V72.3102C86.6823 73.6684 85.9163 74.4265 84.5186 74.4265C83.1209 74.4265 82.347 73.6684 82.347 72.3102V70.7387C82.347 69.3647 83.0419 68.6224 84.2975 68.6224C84.7871 68.6224 85.1819 68.7645 85.4425 69.0567H85.4662V66.7509C85.4662 66.585 85.5531 66.4982 85.7189 66.4982H86.4217H86.4296ZM85.4741 70.8335C85.4741 70.0675 85.1503 69.6727 84.5265 69.6727C83.9027 69.6727 83.571 70.0517 83.571 70.8335V72.2154C83.571 73.0051 83.879 73.3841 84.5265 73.3841C85.174 73.3841 85.4741 73.0051 85.4741 72.2154V70.8335Z" fill="#696B7E"/>
<path d="M91.9415 70.8335V72.3181C91.9415 73.6763 91.1755 74.4344 89.7541 74.4344C88.3327 74.4344 87.6772 73.8106 87.6772 72.6734C87.6772 71.5363 88.38 70.9756 89.683 70.9756H90.7175V70.9204C90.7175 70.0359 90.37 69.6727 89.604 69.6727C89.2487 69.6727 88.9012 69.8148 88.6248 70.028C88.4906 70.1307 88.3721 70.1149 88.2695 69.9727L87.9694 69.5068C87.8825 69.3726 87.8904 69.2541 88.0247 69.1515C88.5301 68.7961 89.075 68.6303 89.7225 68.6303C91.1518 68.6303 91.9415 69.3805 91.9415 70.8414V70.8335ZM90.7254 72.2154V71.8838H89.8567C89.2566 71.8838 88.9012 72.1522 88.9012 72.6418C88.9012 73.1314 89.2171 73.392 89.762 73.392C90.4332 73.392 90.7333 73.013 90.7333 72.2233L90.7254 72.2154Z" fill="#696B7E"/>
<path d="M97.0033 66.4982C97.1691 66.4982 97.256 66.585 97.256 66.7509V72.3102C97.256 73.6684 96.49 74.4265 95.0923 74.4265C93.6945 74.4265 92.9207 73.6684 92.9207 72.3102V70.7387C92.9207 69.3647 93.6156 68.6224 94.8712 68.6224C95.3608 68.6224 95.7556 68.7645 96.0162 69.0567H96.0399V66.7509C96.0399 66.585 96.1267 66.4982 96.2926 66.4982H96.9954H97.0033ZM96.0478 70.8335C96.0478 70.0675 95.724 69.6727 95.1002 69.6727C94.4763 69.6727 94.1447 70.0517 94.1447 70.8335V72.2154C94.1447 73.0051 94.4526 73.3841 95.1002 73.3841C95.7477 73.3841 96.0478 73.0051 96.0478 72.2154V70.8335Z" fill="#696B7E"/>
<path d="M102.705 70.7466V72.3181C102.705 73.6921 101.939 74.4344 100.541 74.4344C99.1433 74.4344 98.3695 73.6842 98.3695 72.3181V70.7466C98.3695 69.3726 99.1354 68.6303 100.541 68.6303C101.947 68.6303 102.705 69.3805 102.705 70.7466ZM101.489 70.8335C101.489 70.0517 101.181 69.6727 100.541 69.6727C99.9014 69.6727 99.5856 70.0517 99.5856 70.8335V72.2154C99.5856 73.0051 99.8935 73.3841 100.541 73.3841C101.189 73.3841 101.489 73.0051 101.489 72.2154V70.8335Z" fill="#696B7E"/>
<path d="M105.634 74.4344C104.742 74.4344 104.118 74.2528 103.613 73.8422C103.486 73.7395 103.479 73.6211 103.558 73.4868L103.858 73.0288C103.944 72.8867 104.071 72.8709 104.205 72.9735C104.584 73.242 105.042 73.3999 105.484 73.3999C106.061 73.3999 106.385 73.1551 106.385 72.7287C106.385 72.3576 106.14 72.1839 105.35 72.0575C104.047 71.8601 103.573 71.3468 103.573 70.3281C103.573 69.3094 104.379 68.6224 105.603 68.6224C106.235 68.6224 106.827 68.7804 107.253 69.0568C107.387 69.1436 107.395 69.27 107.324 69.4121L107.048 69.8543C106.961 69.9965 106.85 70.0123 106.7 69.9175C106.424 69.7359 106.084 69.649 105.745 69.649C105.129 69.649 104.797 69.8859 104.797 70.3202C104.797 70.6677 105.034 70.8177 105.792 70.9362C107.111 71.1257 107.601 71.6627 107.601 72.7208C107.601 73.779 106.843 74.4265 105.634 74.4265V74.4344Z" fill="#696B7E"/>
<path d="M114.795 66.4982C114.96 66.4982 115.047 66.585 115.047 66.7509V72.3102C115.047 73.6684 114.281 74.4265 112.884 74.4265C111.486 74.4265 110.712 73.6684 110.712 72.3102V70.7387C110.712 69.3647 111.407 68.6224 112.663 68.6224C113.152 68.6224 113.547 68.7645 113.808 69.0567H113.831V66.7509C113.831 66.585 113.918 66.4982 114.084 66.4982H114.787H114.795ZM113.839 70.8335C113.839 70.0675 113.515 69.6727 112.892 69.6727C112.268 69.6727 111.936 70.0517 111.936 70.8335V72.2154C111.936 73.0051 112.244 73.3841 112.892 73.3841C113.539 73.3841 113.839 73.0051 113.839 72.2154V70.8335Z" fill="#696B7E"/>
<path d="M120.425 70.7466V71.6626C120.425 71.8285 120.338 71.9153 120.172 71.9153H117.385V72.1364C117.385 73.0209 117.74 73.3841 118.546 73.3841C118.925 73.3841 119.24 73.2578 119.548 73.0051C119.683 72.8945 119.801 72.8945 119.904 73.0367L120.204 73.471C120.291 73.5973 120.283 73.7158 120.156 73.8263C119.722 74.2133 119.13 74.4265 118.498 74.4265C116.974 74.4265 116.169 73.7 116.169 72.2154V70.7308C116.169 69.3568 116.927 68.6145 118.301 68.6145C119.675 68.6145 120.433 69.3647 120.433 70.7308L120.425 70.7466ZM119.264 70.8335C119.264 70.0517 118.964 69.6727 118.324 69.6727C117.685 69.6727 117.377 70.0517 117.377 70.8335V70.9993H119.264V70.8335Z" fill="#696B7E"/>
<path d="M129.522 74.008C129.577 74.1896 129.49 74.3002 129.309 74.3002H128.424C128.266 74.3002 128.179 74.237 128.132 74.087L127.785 72.9262H125.155L124.808 74.087C124.76 74.2291 124.673 74.3002 124.515 74.3002H123.678C123.489 74.3002 123.41 74.1896 123.465 74.008L125.708 67.1063C125.755 66.9641 125.842 66.8931 126 66.8931H126.979C127.137 66.8931 127.224 66.9562 127.271 67.1063L129.514 74.008H129.522ZM126.466 68.4645L125.495 71.789H127.461L126.49 68.4645H126.466V68.4645Z" fill="#696B7E"/>
<path d="M134.765 70.7466V72.3181C134.765 73.6763 133.999 74.4344 132.594 74.4344C131.188 74.4344 130.43 73.6763 130.43 72.3181V66.7588C130.43 66.593 130.517 66.5061 130.683 66.5061H131.386C131.551 66.5061 131.638 66.593 131.638 66.7588V69.0646H131.662C131.93 68.7725 132.317 68.6303 132.807 68.6303C134.07 68.6303 134.757 69.3805 134.757 70.7466H134.765ZM133.549 70.8335C133.549 70.0517 133.249 69.6727 132.594 69.6727C131.938 69.6727 131.646 70.0596 131.646 70.8335V72.2154C131.646 73.0051 131.954 73.3841 132.594 73.3841C133.233 73.3841 133.549 73.0051 133.549 72.2154V70.8335Z" fill="#696B7E"/>
<path d="M135.879 70.7229C135.879 69.3489 136.534 68.6303 137.821 68.6303C138.303 68.6303 138.714 68.733 139.069 68.9462C139.203 69.0251 139.227 69.1594 139.156 69.2936L138.903 69.7516C138.824 69.9096 138.714 69.9175 138.556 69.8385C138.366 69.7358 138.153 69.6806 137.94 69.6806C137.371 69.6806 137.095 70.0122 137.095 70.6913V74.0475C137.095 74.2133 137.008 74.3001 136.842 74.3001H136.139C135.974 74.3001 135.887 74.2133 135.887 74.0475V70.7229H135.879Z" fill="#696B7E"/>
<path d="M139.898 67.1141C139.898 66.7035 140.198 66.4034 140.625 66.4034C141.051 66.4034 141.351 66.7035 141.351 67.1141C141.351 67.5248 141.051 67.8407 140.625 67.8407C140.198 67.8407 139.898 67.5406 139.898 67.1141ZM140.269 74.3081C140.104 74.3081 140.017 74.2212 140.017 74.0554V69.0252C140.017 68.8593 140.104 68.7725 140.269 68.7725H140.972C141.138 68.7725 141.225 68.8593 141.225 69.0252V74.0554C141.225 74.2212 141.138 74.3081 140.972 74.3081H140.269Z" fill="#696B7E"/>
<path d="M146.721 70.7466V74.1896C146.721 75.453 145.908 76.219 144.534 76.219C143.807 76.219 143.183 76.0216 142.717 75.6426C142.599 75.5399 142.583 75.4215 142.67 75.2872L142.962 74.845C143.049 74.6871 143.175 74.6792 143.318 74.7897C143.665 75.0424 144.044 75.1767 144.463 75.1767C145.142 75.1767 145.497 74.8213 145.497 74.1422V73.7947H145.473C145.205 74.0869 144.818 74.2291 144.328 74.2291C143.065 74.2291 142.378 73.4789 142.378 72.1127V70.7545C142.378 69.3963 143.144 68.6382 144.549 68.6382C145.955 68.6382 146.713 69.3963 146.713 70.7545L146.721 70.7466ZM145.505 72.018V70.8493C145.505 70.0596 145.197 69.6805 144.557 69.6805C143.918 69.6805 143.602 70.0596 143.602 70.8493V72.018C143.602 72.7998 143.91 73.1788 144.557 73.1788C145.205 73.1788 145.505 72.784 145.505 72.018Z" fill="#696B7E"/>
<path d="M152.17 70.7466V72.3181C152.17 73.6921 151.404 74.4344 150.006 74.4344C148.608 74.4344 147.834 73.6842 147.834 72.3181V70.7466C147.834 69.3726 148.6 68.6303 150.006 68.6303C151.412 68.6303 152.17 69.3805 152.17 70.7466ZM150.954 70.8335C150.954 70.0517 150.646 69.6727 150.006 69.6727C149.366 69.6727 149.051 70.0517 149.051 70.8335V72.2154C149.051 73.0051 149.359 73.3841 150.006 73.3841C150.654 73.3841 150.954 73.0051 150.954 72.2154V70.8335Z" fill="#696B7E"/>
<path d="M155.099 74.4344C154.207 74.4344 153.583 74.2528 153.078 73.8422C152.952 73.7395 152.944 73.6211 153.023 73.4868L153.323 73.0288C153.41 72.8867 153.536 72.8709 153.67 72.9735C154.049 73.242 154.507 73.3999 154.949 73.3999C155.526 73.3999 155.85 73.1551 155.85 72.7287C155.85 72.3576 155.605 72.1839 154.815 72.0575C153.512 71.8601 153.038 71.3468 153.038 70.3281C153.038 69.3094 153.844 68.6224 155.068 68.6224C155.7 68.6224 156.292 68.7804 156.718 69.0568C156.853 69.1436 156.86 69.27 156.789 69.4121L156.513 69.8543C156.426 69.9965 156.316 70.0123 156.165 69.9175C155.889 69.7359 155.55 69.649 155.21 69.649C154.594 69.649 154.262 69.8859 154.262 70.3202C154.262 70.6677 154.499 70.8177 155.257 70.9362C156.576 71.1257 157.066 71.6627 157.066 72.7208C157.066 73.779 156.308 74.4265 155.099 74.4265V74.4344Z" fill="#696B7E"/>
<path d="M164.26 66.4982C164.425 66.4982 164.512 66.585 164.512 66.7509V72.3102C164.512 73.6684 163.746 74.4265 162.349 74.4265C160.951 74.4265 160.177 73.6684 160.177 72.3102V70.7387C160.177 69.3647 160.872 68.6224 162.128 68.6224C162.617 68.6224 163.012 68.7645 163.273 69.0567H163.296V66.7509C163.296 66.585 163.383 66.4982 163.549 66.4982H164.252H164.26ZM163.304 70.8335C163.304 70.0675 162.98 69.6727 162.357 69.6727C161.733 69.6727 161.401 70.0517 161.401 70.8335V72.2154C161.401 73.0051 161.709 73.3841 162.357 73.3841C163.004 73.3841 163.304 73.0051 163.304 72.2154V70.8335Z" fill="#696B7E"/>
<path d="M169.89 70.7466V71.6626C169.89 71.8285 169.803 71.9153 169.637 71.9153H166.85V72.1364C166.85 73.0209 167.205 73.3841 168.011 73.3841C168.39 73.3841 168.705 73.2578 169.013 73.0051C169.148 72.8945 169.266 72.8945 169.369 73.0367L169.669 73.471C169.756 73.5973 169.748 73.7158 169.621 73.8263C169.187 74.2133 168.595 74.4265 167.963 74.4265C166.439 74.4265 165.634 73.7 165.634 72.2154V70.7308C165.634 69.3568 166.392 68.6145 167.766 68.6145C169.14 68.6145 169.898 69.3647 169.898 70.7308L169.89 70.7466ZM168.729 70.8335C168.729 70.0517 168.429 69.6727 167.789 69.6727C167.15 69.6727 166.842 70.0517 166.842 70.8335V70.9993H168.729V70.8335Z" fill="#696B7E"/>
<path d="M178.979 74.008C179.034 74.1896 178.947 74.3002 178.766 74.3002H177.881C177.723 74.3002 177.637 74.237 177.589 74.087L177.242 72.9262H174.612L174.265 74.087C174.217 74.2291 174.13 74.3002 173.973 74.3002H173.135C172.946 74.3002 172.867 74.1896 172.922 74.008L175.165 67.1063C175.212 66.9641 175.299 66.8931 175.457 66.8931H176.436C176.594 66.8931 176.681 66.9562 176.729 67.1063L178.971 74.008H178.979ZM175.923 68.4645L174.952 71.789H176.918L175.947 68.4645H175.923V68.4645Z" fill="#696B7E"/>
<path d="M182.927 70.7861C182.927 70.0281 182.635 69.6727 182.027 69.6727C181.419 69.6727 181.111 70.0281 181.111 70.7861V74.0396C181.111 74.2054 181.024 74.2923 180.859 74.2923H180.156C179.99 74.2923 179.903 74.2054 179.903 74.0396V70.7072C179.903 69.3489 180.653 68.6224 182.035 68.6224C183.417 68.6224 184.151 69.3489 184.151 70.7072V74.0396C184.151 74.2054 184.065 74.2923 183.899 74.2923H183.196C183.03 74.2923 182.943 74.2054 182.943 74.0396V70.7861H182.927Z" fill="#696B7E"/>
<path d="M185.32 67.1141C185.32 66.7035 185.62 66.4034 186.047 66.4034C186.473 66.4034 186.773 66.7035 186.773 67.1141C186.773 67.5248 186.473 67.8407 186.047 67.8407C185.62 67.8407 185.32 67.5406 185.32 67.1141ZM185.691 74.3081C185.525 74.3081 185.439 74.2212 185.439 74.0554V69.0252C185.439 68.8593 185.525 68.7725 185.691 68.7725H186.394C186.56 68.7725 186.647 68.8593 186.647 69.0252V74.0554C186.647 74.2212 186.56 74.3081 186.394 74.3081H185.691Z" fill="#696B7E"/>
<path d="M195.041 70.715V74.0475C195.041 74.2133 194.954 74.3001 194.788 74.3001H194.085C193.92 74.3001 193.833 74.2133 193.833 74.0475V70.7782C193.833 70.028 193.556 69.6727 192.964 69.6727C192.372 69.6727 192.103 70.028 192.103 70.7782V74.0475C192.103 74.2133 192.017 74.3001 191.851 74.3001H191.148C190.982 74.3001 190.895 74.2133 190.895 74.0475V70.7782C190.895 70.028 190.619 69.6727 190.011 69.6727C189.442 69.6727 189.166 70.028 189.166 70.7782V74.0475C189.166 74.2133 189.079 74.3001 188.913 74.3001H188.21C188.044 74.3001 187.958 74.2133 187.958 74.0475V70.715C187.958 69.3647 188.66 68.6303 189.955 68.6303C190.65 68.6303 191.172 68.8514 191.495 69.2699H191.519C191.843 68.8593 192.356 68.6303 193.043 68.6303C194.346 68.6303 195.065 69.3647 195.065 70.715H195.041Z" fill="#696B7E"/>
<path d="M200.3 70.8335V72.3181C200.3 73.6763 199.534 74.4344 198.113 74.4344C196.691 74.4344 196.036 73.8106 196.036 72.6734C196.036 71.5363 196.739 70.9756 198.042 70.9756H199.076V70.9204C199.076 70.0359 198.729 69.6727 197.963 69.6727C197.607 69.6727 197.26 69.8148 196.984 70.028C196.849 70.1307 196.731 70.1149 196.628 69.9727L196.328 69.5068C196.241 69.3726 196.249 69.2541 196.383 69.1515C196.889 68.7961 197.434 68.6303 198.081 68.6303C199.511 68.6303 200.3 69.3805 200.3 70.8414V70.8335ZM199.084 72.2154V71.8838H198.215C197.615 71.8838 197.26 72.1522 197.26 72.6418C197.26 73.1314 197.576 73.392 198.121 73.392C198.792 73.392 199.092 73.013 199.092 72.2233L199.084 72.2154Z" fill="#696B7E"/>
<path d="M201.343 67.1141C201.343 66.7035 201.643 66.4034 202.069 66.4034C202.496 66.4034 202.796 66.7035 202.796 67.1141C202.796 67.5248 202.496 67.8407 202.069 67.8407C201.643 67.8407 201.343 67.5406 201.343 67.1141V67.1141ZM201.714 74.3081C201.548 74.3081 201.461 74.2212 201.461 74.0554V69.0252C201.461 68.8593 201.548 68.7725 201.714 68.7725H202.417C202.582 68.7725 202.669 68.8593 202.669 69.0252V74.0554C202.669 74.2212 202.582 74.3081 202.417 74.3081H201.714Z" fill="#696B7E"/>
<path d="M205.781 74.4344C204.888 74.4344 204.264 74.2528 203.759 73.8422C203.633 73.7395 203.625 73.6211 203.704 73.4868L204.004 73.0288C204.091 72.8867 204.217 72.8709 204.351 72.9735C204.73 73.242 205.188 73.3999 205.631 73.3999C206.207 73.3999 206.531 73.1551 206.531 72.7287C206.531 72.3576 206.286 72.1839 205.496 72.0575C204.193 71.8601 203.72 71.3468 203.72 70.3281C203.72 69.3094 204.525 68.6224 205.749 68.6224C206.381 68.6224 206.973 68.7804 207.399 69.0568C207.534 69.1436 207.542 69.27 207.47 69.4121L207.194 69.8543C207.107 69.9965 206.997 70.0123 206.847 69.9175C206.57 69.7359 206.231 69.649 205.891 69.649C205.275 69.649 204.944 69.8859 204.944 70.3202C204.944 70.6677 205.18 70.8177 205.939 70.9362C207.257 71.1257 207.747 71.6627 207.747 72.7208C207.747 73.779 206.989 74.4265 205.781 74.4265V74.4344Z" fill="#696B7E"/>
<path d="M80.5149 23.3348C80.8703 23.3348 81.0598 23.5243 81.0598 23.8797V38.4491C81.0598 38.8045 80.8703 38.994 80.5149 38.994H78.7698C78.4144 38.994 78.2249 38.8045 78.2249 38.4491V27.3463H78.1775L74.3318 38.5439C74.2371 38.8518 74.0475 38.994 73.7159 38.994H72.2787C71.947 38.994 71.7575 38.8518 71.6627 38.5439L67.7933 27.2753H67.746V38.4491C67.746 38.8045 67.5564 38.994 67.2011 38.994H65.527C65.1716 38.994 64.9821 38.8045 64.9821 38.4491V23.8718C64.9821 23.5164 65.1716 23.3269 65.527 23.3269H68.733C69.0647 23.3269 69.2542 23.469 69.349 23.777L73.0289 34.6192H73.0762L76.7324 23.777C76.8272 23.469 77.0167 23.3269 77.3484 23.3269H80.507L80.5149 23.3348Z" fill="#157556"/>
<path d="M92.818 31.4684V33.4031C92.818 33.7585 92.6285 33.948 92.2731 33.948H86.3822V34.4218C86.3822 36.2854 87.1324 37.0593 88.8302 37.0593C89.6277 37.0593 90.2911 36.7987 90.9544 36.2617C91.2387 36.0248 91.4993 36.0248 91.7046 36.3328L92.3442 37.2488C92.5337 37.5094 92.51 37.77 92.2495 38.0069C91.3334 38.8282 90.0779 39.2783 88.7354 39.2783C85.5057 39.2783 83.8079 37.7463 83.8079 34.6113V31.4763C83.8079 28.5782 85.4109 26.9989 88.309 26.9989C91.2071 26.9989 92.8101 28.5782 92.8101 31.4763L92.818 31.4684ZM90.3621 31.658C90.3621 30.0076 89.7225 29.21 88.3801 29.21C87.0376 29.21 86.3743 30.0076 86.3743 31.658V32.0133H90.3542V31.658H90.3621Z" fill="#157556"/>
<path d="M103.265 22.4819C103.621 22.4819 103.81 22.6715 103.81 23.0268V34.7929C103.81 37.6673 102.183 39.2704 99.238 39.2704C96.2925 39.2704 94.6421 37.6673 94.6421 34.7929V31.4684C94.6421 28.5703 96.103 26.991 98.7642 26.991C99.7987 26.991 100.628 27.2989 101.188 27.907H101.236V23.0268C101.236 22.6715 101.425 22.4819 101.781 22.4819H103.265V22.4819ZM101.236 31.65C101.236 30.0233 100.549 29.202 99.2301 29.202C97.9114 29.202 97.2007 29.9996 97.2007 31.65V34.5718C97.2007 36.2459 97.864 37.0514 99.2301 37.0514C100.596 37.0514 101.236 36.2538 101.236 34.5718V31.65Z" fill="#157556"/>
<path d="M106.306 23.777C106.306 22.9084 106.945 22.2687 107.838 22.2687C108.73 22.2687 109.37 22.9084 109.37 23.777C109.37 24.6456 108.73 25.309 107.838 25.309C106.945 25.309 106.306 24.6693 106.306 23.777V23.777ZM107.079 38.9861C106.724 38.9861 106.535 38.7966 106.535 38.4412V27.8122C106.535 27.4569 106.724 27.2674 107.079 27.2674H108.564C108.919 27.2674 109.109 27.4569 109.109 27.8122V38.4412C109.109 38.7966 108.919 38.9861 108.564 38.9861H107.079Z" fill="#157556"/>
<path d="M119.509 37.383C119.698 37.6436 119.675 37.9279 119.438 38.1411C118.609 38.8518 117.527 39.2704 116.232 39.2704C113.286 39.2704 111.565 37.6673 111.565 34.6034V31.6342C111.565 28.5703 113.239 26.991 116.161 26.991C117.432 26.991 118.474 27.3226 119.201 27.907C119.462 28.0965 119.485 28.3808 119.272 28.6572L118.609 29.5732C118.395 29.8575 118.159 29.8575 117.859 29.6443C117.456 29.36 116.966 29.1942 116.327 29.1942C114.889 29.1942 114.131 29.9917 114.131 31.8317V34.3981C114.131 36.238 114.929 37.0356 116.445 37.0356C117.085 37.0356 117.622 36.8224 118.119 36.396C118.403 36.1591 118.664 36.1591 118.877 36.467L119.517 37.3594L119.509 37.383Z" fill="#157556"/>
<path d="M121.159 23.777C121.159 22.9084 121.799 22.2687 122.691 22.2687C123.584 22.2687 124.223 22.9084 124.223 23.777C124.223 24.6456 123.584 25.309 122.691 25.309C121.799 25.309 121.159 24.6693 121.159 23.777V23.777ZM121.933 38.9861C121.578 38.9861 121.388 38.7966 121.388 38.4412V27.8122C121.388 27.4569 121.578 27.2674 121.933 27.2674H123.418C123.773 27.2674 123.963 27.4569 123.963 27.8122V38.4412C123.963 38.7966 123.773 38.9861 123.418 38.9861H121.933Z" fill="#157556"/>
<path d="M133.115 31.5632C133.115 29.9601 132.499 29.2099 131.204 29.2099C129.909 29.2099 129.269 29.9601 129.269 31.5632V38.4491C129.269 38.8045 129.08 38.994 128.724 38.994H127.24C126.884 38.994 126.695 38.8045 126.695 38.4491V31.3973C126.695 28.5229 128.274 26.991 131.196 26.991C134.118 26.991 135.673 28.5229 135.673 31.3973V38.4491C135.673 38.8045 135.484 38.994 135.129 38.994H133.644C133.289 38.994 133.099 38.8045 133.099 38.4491V31.5632H133.115Z" fill="#157556"/>
<path d="M146.808 31.658V34.7929C146.808 37.6674 145.181 39.2704 142.188 39.2704C139.195 39.2704 137.806 37.9516 137.806 35.5431C137.806 33.1346 139.29 31.958 142.046 31.958H144.241V31.8396C144.241 29.9759 143.507 29.2021 141.88 29.2021C141.13 29.2021 140.396 29.51 139.803 29.9523C139.519 30.1655 139.259 30.1418 139.053 29.8338L138.414 28.8467C138.224 28.5624 138.248 28.3018 138.532 28.0886C139.59 27.3384 140.751 26.9831 142.117 26.9831C145.134 26.9831 146.808 28.5624 146.808 31.6501V31.658ZM144.241 34.5797V33.8769H142.401C141.13 33.8769 140.372 34.4455 140.372 35.48C140.372 36.5144 141.035 37.0593 142.188 37.0593C143.602 37.0593 144.241 36.2617 144.241 34.5797Z" fill="#157556"/>
<path d="M162.585 22.4819C162.941 22.4819 163.13 22.6715 163.13 23.0268V34.7929C163.13 37.6673 161.504 39.2704 158.558 39.2704C155.613 39.2704 153.962 37.6673 153.962 34.7929V31.4684C153.962 28.5703 155.423 26.991 158.084 26.991C159.119 26.991 159.948 27.2989 160.509 27.907H160.556V23.0268C160.556 22.6715 160.745 22.4819 161.101 22.4819H162.585V22.4819ZM160.556 31.65C160.556 30.0233 159.869 29.202 158.55 29.202C157.231 29.202 156.521 29.9996 156.521 31.65V34.5718C156.521 36.2459 157.184 37.0514 158.55 37.0514C159.916 37.0514 160.556 36.2538 160.556 34.5718V31.65Z" fill="#147656"/>
<path d="M174.486 31.4684V33.4031C174.486 33.7585 174.296 33.948 173.941 33.948H168.05V34.4218C168.05 36.2854 168.808 37.0593 170.498 37.0593C171.296 37.0593 171.959 36.7987 172.622 36.2617C172.907 36.0248 173.167 36.0248 173.372 36.3328L174.012 37.2488C174.202 37.5094 174.178 37.77 173.917 38.0069C173.001 38.8282 171.746 39.2783 170.403 39.2783C167.174 39.2783 165.476 37.7463 165.476 34.6113V31.4763C165.476 28.5782 167.079 26.9989 169.977 26.9989C172.875 26.9989 174.478 28.5782 174.478 31.4763L174.486 31.4684ZM172.038 31.658C172.038 30.0076 171.398 29.21 170.056 29.21C168.713 29.21 168.05 30.0076 168.05 31.658V32.0133H172.038V31.658V31.658Z" fill="#147656"/>
<path d="M193.722 38.3701C193.841 38.7492 193.651 38.9861 193.272 38.9861H191.408C191.077 38.9861 190.887 38.8439 190.792 38.536L190.058 36.0801H184.491L183.757 38.536C183.662 38.8439 183.472 38.9861 183.141 38.9861H181.372C180.969 38.9861 180.803 38.7492 180.922 38.3701L185.66 23.777C185.754 23.469 185.944 23.3269 186.276 23.3269H188.352C188.684 23.3269 188.874 23.469 188.968 23.777L193.706 38.3701H193.722ZM187.263 26.6514L185.21 33.6795H189.355L187.302 26.6514H187.255H187.263Z" fill="#147656"/>
<path d="M204.833 31.4684V34.7929C204.833 37.6673 203.206 39.2704 200.237 39.2704C197.268 39.2704 195.665 37.6673 195.665 34.7929V23.0268C195.665 22.6715 195.854 22.4819 196.21 22.4819H197.694C198.05 22.4819 198.239 22.6715 198.239 23.0268V27.907H198.287C198.855 27.291 199.676 26.991 200.711 26.991C203.372 26.991 204.833 28.5703 204.833 31.4684V31.4684ZM202.266 31.6579C202.266 30.0075 201.627 29.2099 200.237 29.2099C198.847 29.2099 198.231 30.0312 198.231 31.6579V34.5797C198.231 36.2538 198.895 37.0593 200.237 37.0593C201.579 37.0593 202.266 36.2617 202.266 34.5797V31.6579Z" fill="#147656"/>
<path d="M207.186 31.421C207.186 28.5229 208.576 26.991 211.285 26.991C212.295 26.991 213.172 27.2042 213.922 27.6543C214.206 27.8201 214.254 28.1044 214.112 28.3887L213.567 29.3521C213.401 29.6837 213.164 29.7074 212.832 29.5416C212.43 29.3284 211.987 29.2099 211.537 29.2099C210.337 29.2099 209.745 29.9128 209.745 31.3578V38.457C209.745 38.8124 209.555 39.0019 209.2 39.0019H207.715C207.36 39.0019 207.17 38.8124 207.17 38.457V31.4289L207.186 31.421Z" fill="#147656"/>
<path d="M215.699 23.777C215.699 22.9084 216.338 22.2687 217.231 22.2687C218.123 22.2687 218.763 22.9084 218.763 23.777C218.763 24.6456 218.123 25.309 217.231 25.309C216.338 25.309 215.699 24.6693 215.699 23.777V23.777ZM216.481 38.9861C216.125 38.9861 215.936 38.7966 215.936 38.4412V27.8122C215.936 27.4569 216.125 27.2674 216.481 27.2674H217.965C218.321 27.2674 218.51 27.4569 218.51 27.8122V38.4412C218.51 38.7966 218.321 38.9861 217.965 38.9861H216.481Z" fill="#147656"/>
<path d="M230.126 31.4684V38.7492C230.126 41.4104 228.405 43.0371 225.507 43.0371C223.975 43.0371 222.656 42.6107 221.661 41.8131C221.4 41.5999 221.377 41.3393 221.566 41.0629L222.182 40.1232C222.372 39.7916 222.632 39.7679 222.932 40.0048C223.667 40.5497 224.464 40.826 225.356 40.826C226.794 40.826 227.552 40.0758 227.552 38.6307V37.8964H227.504C226.936 38.5123 226.115 38.8124 225.08 38.8124C222.419 38.8124 220.958 37.233 220.958 34.3349V31.4605C220.958 28.5861 222.585 26.9831 225.554 26.9831C228.523 26.9831 230.126 28.5861 230.126 31.4605V31.4684ZM227.56 34.1533V31.6816C227.56 30.0075 226.896 29.21 225.554 29.21C224.211 29.21 223.524 30.0075 223.524 31.6816V34.1533C223.524 35.8037 224.188 36.6092 225.554 36.6092C226.92 36.6092 227.56 35.78 227.56 34.1533Z" fill="#147656"/>
<path d="M241.655 31.4684V34.7929C241.655 37.691 240.029 39.2704 237.083 39.2704C234.138 39.2704 232.487 37.691 232.487 34.7929V31.4684C232.487 28.5703 234.114 26.991 237.083 26.991C240.052 26.991 241.655 28.5703 241.655 31.4684ZM239.089 31.6579C239.089 30.0075 238.426 29.2099 237.083 29.2099C235.741 29.2099 235.054 30.0075 235.054 31.6579V34.5797C235.054 36.2538 235.717 37.0593 237.083 37.0593C238.449 37.0593 239.089 36.2617 239.089 34.5797V31.6579Z" fill="#147656"/>
<path d="M247.854 39.2704C245.967 39.2704 244.648 38.8913 243.59 38.0227C243.329 37.8095 243.306 37.5489 243.472 37.2725L244.111 36.3091C244.301 36.0011 244.561 35.9774 244.846 36.1906C245.643 36.7592 246.614 37.083 247.554 37.083C248.778 37.083 249.465 36.5618 249.465 35.6695C249.465 34.8956 248.944 34.5165 247.27 34.2559C244.514 33.8295 243.519 32.7477 243.519 30.5998C243.519 28.4519 245.217 26.991 247.807 26.991C249.149 26.991 250.397 27.3226 251.297 27.907C251.582 28.0965 251.605 28.3571 251.439 28.6572L250.847 29.5969C250.658 29.9049 250.421 29.9285 250.113 29.739C249.52 29.36 248.818 29.1705 248.083 29.1705C246.788 29.1705 246.077 29.668 246.077 30.584C246.077 31.3184 246.575 31.6421 248.178 31.879C250.958 32.2818 252 33.411 252 35.6537C252 37.8963 250.397 39.2625 247.854 39.2625V39.2704Z" fill="#147656"/>
<path d="M73.2737 52.5052C75.0189 53.0501 75.7927 54.2978 75.7927 56.2799C75.7927 59.2017 74.1186 60.473 70.3203 60.473H65.5349C65.1796 60.473 64.99 60.2835 64.99 59.9282V45.3587C64.99 45.0034 65.1796 44.8138 65.5349 44.8138H69.8939C73.6922 44.8138 75.3663 46.0615 75.3663 48.9122C75.3663 50.6811 74.703 51.834 73.2658 52.45V52.4974L73.2737 52.5052ZM69.9255 51.3286C71.7417 51.3286 72.5393 50.689 72.5393 49.2992C72.5393 47.9094 71.7417 47.2697 69.9255 47.2697H67.825V51.3207H69.9255V51.3286ZM70.3282 58.0251C72.1208 58.0251 72.942 57.338 72.942 55.8771C72.942 54.4163 72.1208 53.7766 70.3282 53.7766H67.8329V58.0172H70.3282V58.0251Z" fill="#5E782A"/>
<path d="M77.9722 52.908C77.9722 50.0099 79.3621 48.4779 82.0706 48.4779C83.0814 48.4779 83.958 48.6911 84.7081 49.1412C84.9924 49.3071 85.0398 49.5913 84.8977 49.8756L84.3528 50.839C84.187 51.1707 83.9501 51.1944 83.6184 51.0285C83.2157 50.8153 82.7734 50.6969 82.3233 50.6969C81.123 50.6969 80.5308 51.3997 80.5308 52.8448V59.9439C80.5308 60.2993 80.3413 60.4888 79.9859 60.4888H78.5013C78.146 60.4888 77.9565 60.2993 77.9565 59.9439V52.9159L77.9722 52.908Z" fill="#5E782A"/>
<path d="M94.8238 53.1449V56.2799C94.8238 59.1543 93.1971 60.7573 90.2042 60.7573C87.2114 60.7573 85.8216 59.4386 85.8216 57.0301C85.8216 54.6216 87.3061 53.445 90.0621 53.445H92.2574V53.3265C92.2574 51.4629 91.523 50.689 89.9042 50.689C89.1461 50.689 88.4196 50.997 87.8273 51.4392C87.543 51.6524 87.2825 51.6287 87.0692 51.3207L86.4296 50.3337C86.2401 50.0494 86.2638 49.7888 86.5481 49.5756C87.6062 48.8254 88.767 48.47 90.1332 48.47C93.1497 48.47 94.8238 50.0494 94.8238 53.137V53.1449ZM92.2574 56.0667V55.3639H90.4175C89.1461 55.3639 88.388 55.9324 88.388 56.9669C88.388 58.0014 89.0513 58.5462 90.2042 58.5462C91.6178 58.5462 92.2574 57.7487 92.2574 56.0667Z" fill="#5E782A"/>
<path d="M101.023 60.7573C99.1354 60.7573 97.8166 60.3783 96.7584 59.5096C96.4978 59.2964 96.4742 59.0358 96.64 58.7594L97.2796 57.796C97.4691 57.4881 97.7297 57.4644 98.014 57.6776C98.8116 58.2461 99.7829 58.5699 100.723 58.5699C101.947 58.5699 102.634 58.0487 102.634 57.1564C102.634 56.3825 102.112 56.0035 100.438 55.7429C97.6824 55.3165 96.6874 54.2346 96.6874 52.0867C96.6874 49.9388 98.3852 48.4779 100.975 48.4779C102.318 48.4779 103.565 48.8096 104.466 49.3939C104.75 49.5834 104.774 49.844 104.608 50.1441L104.016 51.0838C103.826 51.3918 103.589 51.4155 103.281 51.226C102.689 50.8469 101.986 50.6574 101.252 50.6574C99.9566 50.6574 99.2459 51.1549 99.2459 52.0709C99.2459 52.8053 99.7434 53.1291 101.346 53.366C104.126 53.7687 105.168 54.8979 105.168 57.1406C105.168 59.3833 103.565 60.7494 101.023 60.7494V60.7573Z" fill="#5E782A"/>
<path d="M106.85 45.2718C106.85 44.4032 107.49 43.7635 108.382 43.7635C109.275 43.7635 109.914 44.4032 109.914 45.2718C109.914 46.1405 109.275 46.8038 108.382 46.8038C107.49 46.8038 106.85 46.1642 106.85 45.2718ZM107.632 60.4809C107.277 60.4809 107.087 60.2914 107.087 59.936V49.307C107.087 48.9517 107.277 48.7622 107.632 48.7622H109.117C109.472 48.7622 109.662 48.9517 109.662 49.307V59.936C109.662 60.2914 109.472 60.4809 109.117 60.4809H107.632Z" fill="#5E782A"/>
<path d="M113.026 60.473C112.67 60.473 112.481 60.2835 112.481 59.9281V44.5137C112.481 44.1584 112.67 43.9689 113.026 43.9689H114.51C114.866 43.9689 115.055 44.1584 115.055 44.5137V59.9281C115.055 60.2835 114.866 60.473 114.51 60.473H113.026Z" fill="#5E782A"/>
<path fill-rule="evenodd" clip-rule="evenodd" d="M36.7592 60.3703L37.5646 57.9223C39.9889 48.7385 33.5926 43.1318 33.6873 39.7046C33.94 38.3227 34.4059 37.2803 35.1088 36.6802C38.7412 33.5294 43.7872 32.9055 43.882 26.7145C43.8978 25.7195 41.4893 26.1302 39.6415 26.1302C37.7936 26.1302 35.5352 25.2378 33.6242 23.5637C31.7132 21.8896 26.0354 22.2529 22.5293 23.4453C19.0231 24.6377 13.5112 31.0735 14.4115 32.5107C15.3038 33.9479 21.2026 37.1935 22.0792 37.3277C22.9478 37.4619 24.8272 35.0061 23.7533 32.4949C22.6793 29.9838 22.6793 29.0993 23.1215 27.8122C23.5638 26.5329 24.2982 25.8775 24.2982 25.8775C24.2982 25.8775 22.8609 28.207 24.4956 31.6815C26.1302 35.164 23.7059 39.0413 22.8609 38.8834C22.0081 38.7254 18.8652 37.1303 18.8652 37.1303C17.3727 44.0636 15.367 50.6258 9.64185 55.4586C9.64185 55.4586 10.013 55.4112 12.8479 55.3559C15.5328 55.3006 18.0676 54.4241 19.2837 52.0156C21.0605 48.4937 20.4998 42.7133 27.1094 41.6235C27.5516 41.584 27.7411 41.742 27.7174 42.2632L27.6543 43.4556C27.6464 43.6451 27.7253 43.8504 27.9385 43.9452H27.9464C30.1101 44.877 31.1288 45.4771 31.7369 48.3831C32.1396 48.6279 32.8029 48.9596 33.3083 49.236C33.4347 49.307 33.6005 49.5439 33.5136 49.8993C32.8819 51.8735 30.7577 53.1053 28.5308 52.9316C29.052 55.1032 29.0283 57.2985 28.5782 59.4543L28.136 60.3466M27.9306 48.3041C27.9543 47.7987 28.4123 47.4197 28.9414 47.4434C29.4705 47.4671 29.8811 47.8935 29.8495 48.3989C29.818 48.9043 29.3678 49.2833 28.8388 49.2596C28.3097 49.236 27.8991 48.8095 27.9306 48.3041ZM30.9946 27.7964C30.963 27.1883 31.4605 26.6671 32.1001 26.6355C32.7397 26.604 33.2925 27.0699 33.3241 27.6779C33.3557 28.286 32.8661 28.8071 32.2186 28.8387C31.5789 28.8703 31.0262 28.4044 30.9946 27.7964Z" fill="#157556"/>
<path d="M5.1407 27.291L3.60873 25.3879L29.0125 5.00652L52.2209 21.9529L75.1372 4.13788L76.6297 6.06468L52.2683 25.0089L29.0835 8.07834L5.1407 27.291Z" fill="#F2A400"/>
<path d="M29.052 10.9133C31.4682 10.9133 33.4268 8.9546 33.4268 6.53848C33.4268 4.12235 31.4682 2.1637 29.052 2.1637C26.6359 2.1637 24.6772 4.12235 24.6772 6.53848C24.6772 8.9546 26.6359 10.9133 29.052 10.9133Z" fill="#F1A300"/>
<path d="M29.052 8.82851C30.3168 8.82851 31.3421 7.80322 31.3421 6.53846C31.3421 5.2737 30.3168 4.24841 29.052 4.24841C27.7873 4.24841 26.762 5.2737 26.762 6.53846C26.762 7.80322 27.7873 8.82851 29.052 8.82851Z" fill="white"/>
<path d="M76.4875 8.74956C78.9036 8.74956 80.8623 6.7909 80.8623 4.37478C80.8623 1.95866 78.9036 0 76.4875 0C74.0714 0 72.1127 1.95866 72.1127 4.37478C72.1127 6.7909 74.0714 8.74956 76.4875 8.74956Z" fill="#F1A300"/>
<path d="M76.4876 6.66481C77.7523 6.66481 78.7776 5.63952 78.7776 4.37476C78.7776 3.11001 77.7523 2.08472 76.4876 2.08472C75.2228 2.08472 74.1975 3.11001 74.1975 4.37476C74.1975 5.63952 75.2228 6.66481 76.4876 6.66481Z" fill="white"/>
<path fill-rule="evenodd" clip-rule="evenodd" d="M5.92247 27.6227H3.60873V60.4731H4.01936H5.92247H13.148V58.1593H5.92247V27.6227Z" fill="#157556"/>
<path fill-rule="evenodd" clip-rule="evenodd" d="M51.0522 27.6227V58.1593H39.3729V60.4731H51.0522H53.1922H53.358V27.6227H51.0522Z" fill="#157556"/>
<path d="M4.37478 30.7104C6.7909 30.7104 8.74956 28.7517 8.74956 26.3356C8.74956 23.9195 6.7909 21.9608 4.37478 21.9608C1.95866 21.9608 0 23.9195 0 26.3356C0 28.7517 1.95866 30.7104 4.37478 30.7104Z" fill="#F1A300"/>
<path d="M4.37483 28.6256C5.63958 28.6256 6.66487 27.6003 6.66487 26.3356C6.66487 25.0708 5.63958 24.0455 4.37483 24.0455C3.11007 24.0455 2.08478 25.0708 2.08478 26.3356C2.08478 27.6003 3.11007 28.6256 4.37483 28.6256Z" fill="white"/>
<path d="M52.2921 28.4203C54.7082 28.4203 56.6669 26.4616 56.6669 24.0455C56.6669 21.6294 54.7082 19.6707 52.2921 19.6707C49.876 19.6707 47.9173 21.6294 47.9173 24.0455C47.9173 26.4616 49.876 28.4203 52.2921 28.4203Z" fill="#F1A300"/>
<path d="M52.2921 26.3355C53.5568 26.3355 54.5821 25.3102 54.5821 24.0454C54.5821 22.7807 53.5568 21.7554 52.2921 21.7554C51.0273 21.7554 50.002 22.7807 50.002 24.0454C50.002 25.3102 51.0273 26.3355 52.2921 26.3355Z" fill="white"/>
</svg>
